<svg id="Layer_2" data-name="Layer 2" xmlns="http://www.w3.org/2000/svg" viewBox="0 0 729.78 204.39"><defs><style>.cls-1{fill:#f2cf63;}.cls-2{fill:#fff;}</style></defs><path class="cls-1" d="M463,427.08a60.68,60.68,0,1,1,0-86.16l36.71-21.19a102.2,102.2,0,1,0,0,128.54Z" transform="translate(-318.11 -281.8)"/><polygon class="cls-2" points="114.97 102.2 218.76 42.27 218.76 162.12 114.97 102.2"/><path class="cls-1" d="M607.61,411.33c-2.58,0-5.39-.16-8.45-.46s-6-.68-8.9-1.12-5.34-.83-7.38-1.17l.92-11.1c2.1.28,4.54.56,7.32.87s5.55.56,8.3.76,5.14.31,7.17.31a16.52,16.52,0,0,0,6.31-1,7.13,7.13,0,0,0,3.62-3.1,10.87,10.87,0,0,0,1.17-5.35,6.22,6.22,0,0,0-4.89-6.76,53,53,0,0,0-7.63-1.89,69.29,69.29,0,0,1-10.43-2.65,22.53,22.53,0,0,1-7.08-3.81,13.32,13.32,0,0,1-4-5.85,25.84,25.84,0,0,1-1.27-8.65q0-7.95,3-12.47a16.15,16.15,0,0,1,8.45-6.46,38.93,38.93,0,0,1,12.93-1.94q3.36,0,7.68.36t8.55.86c2.81.34,5.21.72,7.17,1.12l-.61,11.2q-3-.4-7.07-.77l-7.94-.66q-3.91-.3-6.67-.3a21,21,0,0,0-6.3.81,7.08,7.08,0,0,0-3.77,2.54,7.47,7.47,0,0,0-1.22,4.38,7.75,7.75,0,0,0,1.22,4.69,8.56,8.56,0,0,0,4.12,2.64,73,73,0,0,0,8,2.14,82.84,82.84,0,0,1,10.23,2.85A23.17,23.17,0,0,1,626.9,375a12.58,12.58,0,0,1,3.82,5.5,25.07,25.07,0,0,1,1.22,8.44q0,8.15-2.9,13.09a16.59,16.59,0,0,1-8.35,7.12A35.24,35.24,0,0,1,607.61,411.33Z" transform="translate(-318.11 -281.8)"/><path class="cls-1" d="M640.89,351v-11.6h13.64V351Zm0,59.24v-51.1h13.54v51.1Z" transform="translate(-318.11 -281.8)"/><path class="cls-1" d="M665.73,410.21v-51.1h13.53v3.26a23,23,0,0,1,3.87-2,40.34,40.34,0,0,1,4.94-1.68,18.8,18.8,0,0,1,5-.72,19.47,19.47,0,0,1,7.64,1.28,12.4,12.4,0,0,1,4.88,3.71,33.28,33.28,0,0,1,4.58-2.24,44.66,44.66,0,0,1,6-1.93,26.1,26.1,0,0,1,6.31-.82,24.66,24.66,0,0,1,9.21,1.48,12,12,0,0,1,5.65,4.58,20.89,20.89,0,0,1,2.85,7.94,71.76,71.76,0,0,1,.81,11.65v26.57H727.5V384.87a52.8,52.8,0,0,0-.56-8.61,8.22,8.22,0,0,0-2.23-4.83,7.27,7.27,0,0,0-5-1.53,23.84,23.84,0,0,0-7.59,1.33,25.47,25.47,0,0,0-2.69,1.12,36.1,36.1,0,0,1,.76,5.49q.26,3.36.26,7v25.34H696.87V385.07a55.45,55.45,0,0,0-.56-8.75,8.08,8.08,0,0,0-2.29-4.89,7.3,7.3,0,0,0-5-1.53,20.75,20.75,0,0,0-7.17,1.33,27.8,27.8,0,0,0-2.6,1.12v37.86Z" transform="translate(-318.11 -281.8)"/><path class="cls-1" d="M751.83,431.68V359.11h13.43l.1,3.26a31.27,31.27,0,0,1,3.62-1.93,29.9,29.9,0,0,1,4.73-1.73,18.3,18.3,0,0,1,5-.72q6.81,0,11,2.91a16.69,16.69,0,0,1,6.21,8.75,46.91,46.91,0,0,1,2,14.81q0,9.56-2.24,15.47a16,16,0,0,1-7.17,8.65q-4.93,2.75-13,2.75a40.42,40.42,0,0,1-5.49-.41c-2-.27-3.53-.55-4.69-.82v21.58ZM773.4,400a10.64,10.64,0,0,0,6.42-1.73,9.28,9.28,0,0,0,3.3-5.24,34,34,0,0,0,1-8.91q0-8.34-2.29-11.55a7.57,7.57,0,0,0-6.56-3.21,16,16,0,0,0-3.46.41,29.9,29.9,0,0,0-3.57,1,20.22,20.22,0,0,0-2.85,1.22v27.28c.82.06,2,.2,3.52.4A33,33,0,0,0,773.4,400Z" transform="translate(-318.11 -281.8)"/><path class="cls-1" d="M807.6,410.21v-72h13.54v72Z" transform="translate(-318.11 -281.8)"/><path class="cls-1" d="M853.4,411.33c-5.63,0-10.09-1-13.38-2.85a16,16,0,0,1-7.08-8.66,42.57,42.57,0,0,1-2.14-14.55q0-9.47,2.7-15.47a18.51,18.51,0,0,1,7.89-8.9A25.89,25.89,0,0,1,854.21,358q11.31,0,17,5.71t5.75,18l-.61,7.53h-32q.1,5.7,2.34,8.55c1.5,1.9,4.07,2.85,7.74,2.85q3.15,0,6.92-.15t7.48-.36q3.72-.19,6.36-.41l.31,9.47c-1.7.27-3.84.58-6.42.91s-5.24.63-8,.87S855.84,411.33,853.4,411.33Zm-9-30.74h19c0-4.61-.74-7.84-2.19-9.67s-3.82-2.75-7.08-2.75a10.77,10.77,0,0,0-5.39,1.22,7.74,7.74,0,0,0-3.26,4A19.62,19.62,0,0,0,844.44,380.59Z" transform="translate(-318.11 -281.8)"/><path class="cls-2" d="M912.43,411.12q-7.93,0-12.93-2.44a18,18,0,0,1-7.73-7.08A31.88,31.88,0,0,1,888,390.26,98.25,98.25,0,0,1,886.88,375a103.65,103.65,0,0,1,1-15.32,33.76,33.76,0,0,1,3.71-11.55,18,18,0,0,1,7.69-7.32q5-2.55,13.13-2.55a69.3,69.3,0,0,1,7.07.36q3.51.36,6.57.76c2,.27,3.83.58,5.39.91l-.31,4.69q-2.24-.51-5.44-1c-2.14-.31-4.34-.56-6.62-.76s-4.39-.31-6.36-.31q-6.71,0-10.84,2.14a14,14,0,0,0-6.2,6.31,30.36,30.36,0,0,0-2.8,10.07,113.23,113.23,0,0,0-.71,13.54,104.42,104.42,0,0,0,.76,13.39,29.8,29.8,0,0,0,2.85,9.87,13.87,13.87,0,0,0,6.16,6.1q4.06,2.1,10.78,2.09a78.1,78.1,0,0,0,9.57-.61c3.32-.41,6.28-.85,8.85-1.32l.31,4.58q-2.55.51-5.65,1c-2.07.31-4.26.56-6.56.77S914.67,411.12,912.43,411.12Z" transform="translate(-318.11 -281.8)"/><path class="cls-2" d="M954.16,411.12q-6.51,0-10.13-3.76t-3.61-11.3a17.05,17.05,0,0,1,1.52-7.63,11.13,11.13,0,0,1,4.79-4.84,22.07,22.07,0,0,1,8.34-2.29l18.12-1.93v-5q0-6.11-2.65-8.8c-1.76-1.8-4.41-2.7-7.93-2.7q-2.65,0-6.16.3c-2.34.21-4.67.43-7,.67l-6.11.66-.31-4.17c1.63-.27,3.6-.57,5.91-.87s4.68-.56,7.12-.76,4.68-.31,6.72-.31a18.76,18.76,0,0,1,8.75,1.78,11.13,11.13,0,0,1,5,5.3,21.28,21.28,0,0,1,1.63,8.9v28.19a3.68,3.68,0,0,0,2.34,3.21A14.12,14.12,0,0,0,985.2,407l-.2,4.17c-.82,0-1.63,0-2.45-.1a17.45,17.45,0,0,1-2.29-.35,16.27,16.27,0,0,1-2.08-.67,11.35,11.35,0,0,1-2.29-1.27,11.91,11.91,0,0,1-2-1.78q-2.13.81-5.39,1.83a55.75,55.75,0,0,1-7,1.68A42.37,42.37,0,0,1,954.16,411.12Zm.4-4.27a39.83,39.83,0,0,0,6.82-.61,64.17,64.17,0,0,0,6.62-1.53c2.1-.61,3.83-1.18,5.19-1.73V383.54l-17.61,1.73q-5.49.51-7.73,3.16c-1.5,1.76-2.24,4.27-2.24,7.53q0,5.19,2.29,8A8,8,0,0,0,954.56,406.85Z" transform="translate(-318.11 -281.8)"/><path class="cls-2" d="M994.87,410.21V336.32h4.88v73.89Z" transform="translate(-318.11 -281.8)"/><path class="cls-2" d="M1034.87,411.12q-8.25,0-12.83-2.59t-6.31-8.66q-1.72-6-1.73-16.13,0-9.36,2-14.9a14,14,0,0,1,6.71-8q4.68-2.43,12.22-2.44c1,0,2.29.05,3.81.16s3.11.25,4.73.45,3,.38,4.18.51l-.21,4.28c-1.15-.14-2.47-.27-4-.41s-3-.26-4.42-.36-2.67-.15-3.62-.15q-6.3,0-9.82,2a11.44,11.44,0,0,0-5,6.62,39.63,39.63,0,0,0-1.53,12.21,56.57,56.57,0,0,0,1.27,13.39,11.64,11.64,0,0,0,4.73,7.28q3.47,2.23,10.38,2.23c1,0,2.16-.05,3.62-.15s3-.22,4.53-.35,2.91-.24,4.07-.31l.2,4.27-4.38.46c-1.62.17-3.22.31-4.78.41S1035.88,411.12,1034.87,411.12Z" transform="translate(-318.11 -281.8)"/></svg>